<?xml version="1.0" encoding="UTF-8" standalone="no"?>
<svg
   viewBox="0 0 32 32"
   version="1.1"
   id="svg9"
   sodipodi:docname="github_nav.svg"
   inkscape:version="1.2.1 (9c6d41e410, 2022-07-14)"
   xmlns:inkscape="http://www.inkscape.org/namespaces/inkscape"
   xmlns:sodipodi="http://sodipodi.sourceforge.net/DTD/sodipodi-0.dtd"
   xmlns="http://www.w3.org/2000/svg"
   xmlns:svg="http://www.w3.org/2000/svg">
  <defs
     id="defs13" />
  <sodipodi:namedview
     id="namedview11"
     pagecolor="#ffffff"
     bordercolor="#000000"
     borderopacity="0.25"
     inkscape:showpageshadow="2"
     inkscape:pageopacity="0.0"
     inkscape:pagecheckerboard="0"
     inkscape:deskcolor="#d1d1d1"
     showgrid="false"
     inkscape:zoom="32.09375"
     inkscape:cx="12.229796"
     inkscape:cy="15.984421"
     inkscape:window-width="2560"
     inkscape:window-height="1334"
     inkscape:window-x="-11"
     inkscape:window-y="-11"
     inkscape:window-maximized="1"
     inkscape:current-layer="svg9" />
  <linearGradient
     id="a"
     x1="16"
     x2="16"
     y1="32"
     y2="0"
     gradientUnits="userSpaceOnUse">
    <stop
       offset="0"
       stop-color="#ff2d76"
       id="stop2"
       style="stop-color:#00ff7f;stop-opacity:1;" />
    <stop
       offset="0.58103132"
       stop-color="#ff2d76"
       id="stop5757"
       style="stop-color:#aa0055;stop-opacity:1;" />
    <stop
       offset="1"
       stop-color="#fb0000"
       id="stop4"
       style="stop-color:#ff0080;stop-opacity:1;" />
  </linearGradient>
  <path
     fill="url(#a)"
     d="M21.806 32h-8.529s.012-2.531 0-4.267c-5.838 1.257-7.467-3.2-7.467-3.2-1.067-2.133-2.133-3.2-2.133-3.2-2.133-1.267 0-1.067 0-1.067 2.133 0 3.2 2.133 3.2 2.133 1.872 3.179 5.203 2.667 6.4 2.133 0-1.067.467-2.679 1.067-3.2-4.659-.525-8.538-3.2-8.538-8.533s1.071-6.4 2.138-7.467C7.728 4.807 6.835 2.864 7.976 0c0 0 2.096 0 4.229 3.2 1.057-1.057 4.267-1.067 5.334-1.067 1.065 0 4.275.01 5.331 1.067C25.005 0 27.106 0 27.106 0c1.14 2.864.249 4.807.032 5.333 1.067 1.067 2.133 2.133 2.133 7.467s-3.873 8.009-8.533 8.533c.601.521 1.067 2.356 1.067 3.2V32h.001z"
     id="path7"
     style="fill:#00ff7f;fill-opacity:1" />
</svg>
