<?xml version="1.0" encoding="UTF-8" standalone="no"?>
<svg
   viewBox="0 0 32 32"
   version="1.1"
   id="svg13561"
   sodipodi:docname="linkedin_nav.svg"
   inkscape:version="1.2.1 (9c6d41e410, 2022-07-14)"
   xmlns:inkscape="http://www.inkscape.org/namespaces/inkscape"
   xmlns:sodipodi="http://sodipodi.sourceforge.net/DTD/sodipodi-0.dtd"
   xmlns="http://www.w3.org/2000/svg"
   xmlns:svg="http://www.w3.org/2000/svg">
  <defs
     id="defs13565" />
  <sodipodi:namedview
     id="namedview13563"
     pagecolor="#ffffff"
     bordercolor="#000000"
     borderopacity="0.25"
     inkscape:showpageshadow="2"
     inkscape:pageopacity="0.0"
     inkscape:pagecheckerboard="0"
     inkscape:deskcolor="#d1d1d1"
     showgrid="false"
     inkscape:zoom="32.09375"
     inkscape:cx="12.821811"
     inkscape:cy="15.984421"
     inkscape:window-width="2560"
     inkscape:window-height="1334"
     inkscape:window-x="-11"
     inkscape:window-y="-11"
     inkscape:window-maximized="1"
     inkscape:current-layer="svg13561" />
  <linearGradient
     id="a"
     x1="16"
     x2="16"
     y1="31.293"
     y2=".707"
     gradientUnits="userSpaceOnUse">
    <stop
       offset="0"
       stop-color="#ff2d76"
       id="stop13554" />
    <stop
       offset="1"
       stop-color="#fb0000"
       id="stop13556" />
  </linearGradient>
  <path
     fill="url(#a)"
     d="M32 31.292V19.46c0-6.34-3.384-9.29-7.896-9.29-3.641 0-5.273 2.003-6.182 3.409v-2.924h-6.86c.091 1.937 0 20.637 0 20.637h6.86V19.767c0-.615.044-1.232.226-1.672.495-1.233 1.624-2.509 3.518-2.509 2.483 0 3.475 1.892 3.475 4.666v11.041H32v-.001zM3.835 7.838c2.391 0 3.882-1.586 3.882-3.567C7.673 2.247 6.227.707 3.881.707S0 2.246 0 4.271c0 1.981 1.489 3.567 3.792 3.567h.043zm3.43 23.454V10.655H.406v20.637h6.859z"
     id="path13559"
     style="fill:#00ff7f;fill-opacity:1" />
</svg>
